<svg xmlns="http://www.w3.org/2000/svg" viewBox="0 0 160 200"><defs><style>.cls-1{fill:#f2f2f2;}.cls-2{fill:#afb9d2;}.cls-3{fill:#464d57;}.cls-4{fill:#fff;}.cls-5{fill:#472d1f;}.cls-6{fill:#fcbc85;}.cls-7{fill:#fdcc9b;}.cls-8{fill:#e0623b;}.cls-9{fill:#474747;}.cls-10{fill:#c7cfe2;}.cls-11{fill:#f0f2fa;}.cls-12{fill:#f7abaf;}.cls-13{fill:#ff6464;}.cls-14{fill:#e4eaf6;}</style></defs><title> </title><g id="Layer_1" data-name="Layer 1"><ellipse class="cls-1" cx="69.74" cy="184.77" rx="61.74" ry="11.71"/><path class="cls-2" d="M153.08,12.47,121.83,4.4a1.35,1.35,0,0,0-1.64,1l-8.95,34.69L145.1,48.8l8.95-34.69A1.35,1.35,0,0,0,153.08,12.47Z"/><path class="cls-3" d="M56.81,99.62l-.51-.16c-.37-.11-1-.27-1.77-.45a43.14,43.14,0,0,0-6.77-1,40.09,40.09,0,0,0-4.52,0,33.67,33.67,0,0,0-4.86.66,24.49,24.49,0,0,0-4.82,1.59,20.07,20.07,0,0,0-4.4,2.65,22.84,22.84,0,0,0-3.71,3.68c-.49.74-1.05,1.42-1.51,2.18s-.93,1.5-1.29,2.31-.78,1.57-1.08,2.39l-.89,2.4c-.44,1.64-.94,3.16-1.19,4.66-.15.74-.31,1.45-.43,2.13l-.27,2-.24,1.73-.11,1.5-.21,2.85,0,.25a4,4,0,0,1-8.07-.25s0-1.15,0-3.17l0-1.67.09-2,.11-2.26c.07-.8.18-1.64.28-2.52.15-1.76.57-3.68.95-5.71l.84-3.12c.29-1.06.74-2.13,1.13-3.23s1-2.17,1.47-3.28,1.23-2.16,1.86-3.26a33.78,33.78,0,0,1,5-6,31.47,31.47,0,0,1,6.36-4.67,36.4,36.4,0,0,1,6.93-3,46.8,46.8,0,0,1,12.8-2.07,56.68,56.68,0,0,1,9,.47q1.65.23,2.58.42l1,.22a7.12,7.12,0,1,1-2.95,13.92q-.33-.07-.64-.17Z"/><path class="cls-3" d="M90.63,84.63l.16,0,.36.05c.38.06,1,.15,1.81.24a46.15,46.15,0,0,0,6.73.28,38,38,0,0,0,4.35-.41,32.16,32.16,0,0,0,4.53-1,23.78,23.78,0,0,0,4.27-1.83,17.48,17.48,0,0,0,3.67-2.66,21.61,21.61,0,0,0,3-3.42c.38-.68.83-1.3,1.18-2s.73-1.36,1-2.11.59-1.43.83-2.19l.68-2.2c.32-1.52.71-2.91.86-4.32.1-.69.22-1.34.29-2l.15-1.84a20.87,20.87,0,0,1,.39-3,6.88,6.88,0,0,1,1.29-2.69l.72-.82a8.55,8.55,0,0,1,12.07-.79,8.91,8.91,0,0,1,1.42,1.61,8.49,8.49,0,0,1,1.12,3.32,12.93,12.93,0,0,1,.14,1.76c0,.65-.11,1.35-.17,2.1l-.22,2.39c-.11.85-.27,1.74-.41,2.67-.24,1.86-.77,3.9-1.28,6l-1.05,3.32c-.36,1.13-.91,2.27-1.38,3.43s-1.16,2.31-1.76,3.48-1.44,2.3-2.19,3.45a35.58,35.58,0,0,1-5.76,6.24,33.88,33.88,0,0,1-7.08,4.66,36.5,36.5,0,0,1-7.48,2.76,46.23,46.23,0,0,1-7.07,1.18,53.51,53.51,0,0,1-6.22.09,54.15,54.15,0,0,1-9-1.15q-1.63-.37-2.55-.63l-1-.29a7.1,7.1,0,0,1,3.29-13.8Z"/><path class="cls-3" d="M102.39,111H37.1a61.13,61.13,0,0,0-1.16,7h67.59A61.13,61.13,0,0,0,102.39,111Z"/><path class="cls-3" d="M103.81,121H35.68c0,2,0,2,0,2.72,0,1.68,0,3.28.07,5.28h68.08c0-2,.07-3.6.07-5.28C103.86,123,103.84,123,103.81,121Z"/><path class="cls-3" d="M37.32,143a16.22,16.22,0,0,0,.47,2.26s0,.26,0,.27c3.72,12.55,11.93,10,22.16,8.3A98.83,98.83,0,0,0,61.37,143H37.32Z"/><path class="cls-3" d="M101.74,145.24a16.75,16.75,0,0,0,.43-2.24H61.37a78.27,78.27,0,0,1-.91,7.89c-10.23,1.7-18.94,7.27-22.66-5.28,1.36,12.08,6.08,37.58,11.69,37.58,4.47,0,8.88-19.28,11-32-.15,1-.32,2-.49,3.07a60.66,60.66,0,0,1,9.87-.91,65.64,65.64,0,0,1,9.81,1C82,166.95,86,183.27,90,183.27c5.56,0,10.24-24.94,11.66-37.15,0-.13.09-.44.13-.58S101.74,145.24,101.74,145.24Z"/><path class="cls-3" d="M98.62,101H40.87a29,29,0,0,0-2.74,7h63.23A29,29,0,0,0,98.62,101Z"/><path class="cls-3" d="M69.74,78.83C58.85,78.83,49.14,87,42.9,96H96.59C90.35,87,80.65,78.83,69.74,78.83Z"/><path class="cls-3" d="M80.47,133H35.88c.16,2,.4,4,.72,7h66.3c.32-3,.56-5,.72-7H80.47Z"/><path class="cls-4" d="M96.59,96H42.9a33.31,33.31,0,0,1-2,5H98.62A33.31,33.31,0,0,1,96.59,96Z"/><path class="cls-4" d="M101.36,108H38.13c-.38,1-.73,2-1,3h65.28C102.09,110,101.74,109,101.36,108Z"/><path class="cls-4" d="M103.54,118H35.95c-.13,1-.22,2-.27,3h68.14C103.77,120,103.67,119,103.54,118Z"/><path class="cls-4" d="M85.44,129H35.71c0,2,.1,3,.17,4h67.74c.07-1,.13-2,.17-4H85.44Z"/><path class="cls-4" d="M77.94,140H36.59q.31,1.5.73,3h64.85q.41-1.5.73-3h-25Z"/><path class="cls-5" d="M63.09,183.5c0,5.11-6.09,5.79-13.6,5.79s-13.6-.67-13.6-5.79,6.09-12.16,13.6-12.16S63.09,178.38,63.09,183.5Z"/><path class="cls-5" d="M104.22,183.5c0,5.11-6.09,5.79-13.6,5.79S77,188.61,77,183.5s6.09-12.16,13.6-12.16S104.22,178.38,104.22,183.5Z"/><ellipse class="cls-6" cx="35.25" cy="57.07" rx="8.62" ry="9.83"/><ellipse class="cls-6" cx="103.28" cy="56.66" rx="8.55" ry="9.76"/><path class="cls-7" d="M103.79,38.29c0-14.48-10.59-25.07-34.25-25.07S35.29,23.82,35.29,38.29,32.81,90.91,69.54,90.91,103.79,52.77,103.79,38.29Z"/><path class="cls-8" d="M70.56,76.54c10.17,0,18.61-4.27,20.17-9.52a1.36,1.36,0,0,0-1.31-1.75H51.7A1.36,1.36,0,0,0,50.39,67C52,72.27,60.39,76.54,70.56,76.54Z"/><path class="cls-4" d="M54.48,65.28h31.7a0,0,0,0,1,0,0v2.57a1.49,1.49,0,0,1-1.49,1.49H56a1.49,1.49,0,0,1-1.49-1.49V65.28a0,0,0,0,1,0,0Z"/><path class="cls-9" d="M69.77,28.76V-.2c-30.25,0-35.9,11.3-37.31,32.49s1.78,28.48,3.89,28.46,1-24.29,3.88-29.51C45.53,21.7,55,28.76,69.77,28.76Z"/><path class="cls-9" d="M69.77,28.76V-.2c30.25,0,35.9,11.3,37.31,32.49s-1.78,28.48-3.89,28.46-1-24.29-3.88-29.51C94,21.7,84.55,28.76,69.77,28.76Z"/><rect class="cls-9" x="35.26" y="44.97" width="67.93" height="14.2"/><path class="cls-4" d="M57.81,53.88a4.24,4.24,0,1,1-8.12-2.47C50.37,49.17,58.49,51.64,57.81,53.88Z"/><circle class="cls-8" cx="78.04" cy="69.27" r="1.97"/><path class="cls-4" d="M82.55,53.88a4.24,4.24,0,1,0,8.12-2.47C90,49.17,81.87,51.64,82.55,53.88Z"/><circle class="cls-7" cx="14.57" cy="133.33" r="4.5"/><path class="cls-10" d="M155.3,16.35,126,2.83a1.35,1.35,0,0,0-1.79.66L109.19,36,141,50.67l15-32.53A1.35,1.35,0,0,0,155.3,16.35Z"/><path class="cls-11" d="M119.88,6.24h32.28a1.35,1.35,0,0,1,1.35,1.35V43.41a0,0,0,0,1,0,0h-35a0,0,0,0,1,0,0V7.59a1.35,1.35,0,0,1,1.35-1.35Z" transform="translate(31.18 -65.32) rotate(30.35)"/><rect class="cls-12" x="127.21" y="11.79" width="29.54" height="6.75" rx="0.58" ry="0.58" transform="matrix(0.86, 0.51, -0.51, 0.86, 27.12, -69.66)"/><rect class="cls-13" x="123.45" y="19.97" width="30.08" height="3.38" rx="1.69" ry="1.69" transform="translate(29.92 -67.01) rotate(30.35)"/><rect class="cls-2" x="121.94" y="20.93" width="14.24" height="2.31" rx="1.16" ry="1.16" transform="translate(28.85 -62.18) rotate(30.35)"/><rect class="cls-10" x="119.66" y="24.83" width="14.24" height="2.31" rx="1.16" ry="1.16" transform="translate(30.5 -60.5) rotate(30.35)"/><rect class="cls-10" x="117.38" y="28.73" width="14.24" height="2.31" rx="1.16" ry="1.16" transform="translate(32.16 -58.81) rotate(30.35)"/><rect class="cls-14" x="115.1" y="32.62" width="14.24" height="2.31" rx="1.16" ry="1.16" transform="translate(33.82 -57.12) rotate(30.35)"/><rect class="cls-2" x="135.27" y="28.74" width="14.24" height="2.31" rx="1.16" ry="1.16" transform="translate(34.62 -67.85) rotate(30.35)"/><rect class="cls-10" x="132.98" y="32.63" width="14.24" height="2.31" rx="1.16" ry="1.16" transform="translate(36.27 -66.16) rotate(30.35)"/><rect class="cls-10" x="130.7" y="36.53" width="14.24" height="2.31" rx="1.16" ry="1.16" transform="translate(37.93 -64.47) rotate(30.35)"/><rect class="cls-14" x="128.42" y="40.43" width="14.24" height="2.31" rx="1.16" ry="1.16" transform="translate(39.58 -62.79) rotate(30.35)"/><path class="cls-7" d="M146.44,50.3l.17,0,.34-7c0-1.11-.44-8-3.68-7.82-1.56.1-2.36,1.35-2.78,2.75-.51-1.31-1.37-2.47-2.82-2.38A3.1,3.1,0,0,0,135,38.2c-.53-1.15-1.35-2.09-2.66-2-1.56.1-2.36,1.35-2.78,2.74-.51-1.31-1.37-2.47-2.82-2.38-3,.2-3.24,4.71-3.22,6.26l.31,7.83a11,11,0,0,0,.08,1.93c.8,6,5.59,8.75,11.62,8.54C141,60.94,145.81,55.49,146.44,50.3Z"/></g></svg>